<?xml version="1.0" encoding="iso-8859-1"?>
<!-- Generator: Adobe Illustrator 16.0.0, SVG Export Plug-In . SVG Version: 6.00 Build 0)  -->
<!DOCTYPE svg PUBLIC "-//W3C//DTD SVG 1.1//EN" "http://www.w3.org/Graphics/SVG/1.1/DTD/svg11.dtd">
<svg version="1.1" id="Capa_1" xmlns="http://www.w3.org/2000/svg" xmlns:xlink="http://www.w3.org/1999/xlink" x="0px" y="0px"
	 width="124.771px" height="124.771px" viewBox="0 0 124.771 124.771" style="enable-background:new 0 0 124.771 124.771;"
	 xml:space="preserve">
<g>
	<g>
		<path d="M114.225,98.902l-2.891,1.047c-0.328-1.576-0.189-2.347,0.02-3.517c0.193-1.09,0.436-2.442,0.445-4.666
			c0.028-5.965-4.015-14.682-4.205-15.086l-0.072-0.135c-2.787-4.724-6.564-4.218-8.82-3.912c-0.638,0.086-1.354,0.181-1.729,0.101
			c-2.629-1.496-7.149-1.893-11.215-0.078c-0.694,0.035-2.084,0.174-3.607,0.727c-1.319,0.479-2.448,1.154-3.366,2.018
			c-1.834-5.031-4.563-12.521-4.921-13.506c-0.781-2.158-3.678-3.139-4.021-3.25c-1.365-0.402-2.793-0.363-4.123,0.119
			c-3.438,1.244-5.222,5.055-3.978,8.49l8.696,24.016c0.15,0.42,0.259,0.795,0.337,1.121c-6.349-0.744-10.566,0.121-12.592,2.557
			c-2.022,2.435-1.016,5.306-0.972,5.427c1.66,4.581,7.69,4.661,8.297,4.651c9.101,0.795,12.06,4.349,13.008,6.81l-3.146,1.139
			l4.271,11.797l38.854-14.069L114.225,98.902z M81.234,119.328l-1.288-3.562l3.562-1.288l1.287,3.561L81.234,119.328z
			 M107.557,101.318l-25.312,9.164c-0.449-1.199-1.1-2.314-1.938-3.324c-2.889-3.474-7.771-5.527-14.561-6.107l-0.173-0.006
			c-0.038,0-3.887-0.008-4.61-2.002c-0.011-0.035-0.273-0.881,0.281-1.547c0.191-0.23,0.587-0.566,1.37-0.853
			c1.403-0.508,4.265-0.916,9.935,0.021l1.771,0.295l0.478-1.736c0.094-0.348,0.5-2.233-0.615-5.312l-8.696-24.014
			c-0.496-1.373,0.216-2.894,1.588-3.392c1.374-0.498,2.896,0.215,3.394,1.588l6.375,17.75c0.375,1.033,1.52,1.567,2.551,1.195
			c0.943-0.343,1.472-1.324,1.271-2.277l-0.246-0.883c-0.439-1.449,1.568-2.203,3.098-2.756c1.393-0.505,2.676-0.5,2.688-0.5
			c0.064,0,0.127-0.005,0.191-0.013c0.367,0.029,0.699-0.02,1.085-0.221c0.002,0,0.239-0.127,0.672-0.283
			c1.387-0.502,4.177-1.129,7.336,0.324l0.16,0.061c1.212,0.406,2.469,0.236,3.581,0.086c2.035-0.272,3.386-0.452,4.812,1.906
			c0.317,0.697,3.798,8.445,3.774,13.26c-0.01,1.886-0.21,3.005-0.387,3.99C107.111,97.507,106.957,98.82,107.557,101.318z"/>
		<path d="M64.943,110.382c-4.73-0.054-10.926-2.22-13.087-8.187c-0.22-0.6-0.391-1.291-0.497-2.035H12.703V8.572
			c0-1.182,0.962-2.143,2.143-2.143h66.169c1.183,0,2.145,0.961,2.145,2.143v58.956l6.43-1.263V8.572C89.59,3.845,85.744,0,81.018,0
			h-66.17C10.12,0,6.275,3.846,6.275,8.572v99.594c0,4.729,3.846,8.574,8.572,8.574h55.874l-2.08-5.744
			C67.605,110.73,66.379,110.517,64.943,110.382z M51.742,111.97H44.12v-6.297l3.862-2.854l3.76,2.86V111.97z"/>
		<polygon points="26.112,70.058 19.657,67.417 17.813,71.925 29.214,76.589 34.354,59.703 41.089,67.857 55.781,49.385 
			79.266,40.29 77.508,35.749 52.791,45.322 41.018,60.124 32.334,49.613 		"/>
		<path d="M58.967,29.825c0-6.864-5.564-12.429-12.429-12.429c-6.865,0-12.428,5.564-12.428,12.429
			c0,6.865,5.564,12.429,12.428,12.429C53.402,42.254,58.967,36.69,58.967,29.825z M40.865,37.223l0.715-2.489
			c1.033,0.607,2.516,1.164,4.13,1.164c1.668,0,2.807-0.82,2.807-2.092c0-1.191-0.927-1.959-2.886-2.674
			c-2.781-1.006-4.581-2.278-4.581-4.74c0-2.276,1.589-4.024,4.263-4.501v-2.595h2.172v2.463c1.668,0.053,2.807,0.45,3.652,0.873
			l-0.714,2.437c-0.635-0.292-1.799-0.9-3.601-0.9c-1.854,0-2.515,0.954-2.515,1.853c0,1.086,0.952,1.695,3.203,2.596
			c2.966,1.112,4.29,2.542,4.29,4.897c0,2.251-1.563,4.237-4.476,4.714v2.728h-2.172v-2.569
			C43.487,38.333,41.819,37.857,40.865,37.223z"/>
	</g>
</g>
<g>
</g>
<g>
</g>
<g>
</g>
<g>
</g>
<g>
</g>
<g>
</g>
<g>
</g>
<g>
</g>
<g>
</g>
<g>
</g>
<g>
</g>
<g>
</g>
<g>
</g>
<g>
</g>
<g>
</g>
</svg>
